<svg xmlns="http://www.w3.org/2000/svg" xmlns:xlink="http://www.w3.org/1999/xlink" width="1920" height="1080" viewBox="0 0 1920 1080"><defs><clipPath id="b"><rect width="1920" height="1080"/></clipPath></defs><g id="a" clip-path="url(#b)"><rect width="1920" height="1080" fill="rgba(255,255,255,0)"/><g transform="translate(0 312.5)"><line x2="705" transform="translate(151 213.5)" fill="none" stroke="#0d0d0d" stroke-width="1"/><line x1="141" transform="translate(0 213.5)" fill="none" stroke="#0d0d0d" stroke-width="1"/><path d="M23.6,292.3V234.174H43.992v28.855H71.635V189.781H92.028V292.3H122.39V272.647h49.848V292.3h4.078V149.088h25.377V292.3h4.532V178.683h32.628V292.3H246.1V78.8h22.205V292.3h3.625V234.174h24.924V292.3h5.891V248.971H360.3V198.66h19.033V292.3h5.891V258.589h12.689V292.3h9.97V130.591h22.658V292.3h5.891V130.591h21.752V292.3H467.7V244.532h48.942V292.3h5.438V207.538h22.658v55.491H560.6V292.3" transform="translate(93.5 -78.8)" stroke="#0d0d0d" stroke-width="1"/></g><path d="M215.6,505.4l50-16v16Z" transform="translate(-5.6 2.6)" fill="#070707" stroke="#070707" stroke-width="1"/><path d="M186,471.8,216,505v20H186Z" stroke="#000" stroke-width="1"/><g transform="translate(255 481)" stroke="#000" stroke-width="1"><rect width="5" height="16" stroke="none"/><rect x="0.5" y="0.5" width="4" height="15" fill="none"/></g><g transform="translate(244 481)" stroke="#000" stroke-width="1"><rect width="5" height="16" stroke="none"/><rect x="0.5" y="0.5" width="4" height="15" fill="none"/></g><g transform="translate(536 347)" stroke="#000" stroke-width="1"><rect width="11" height="27" stroke="none"/><rect x="0.5" y="0.5" width="10" height="26" fill="none"/></g><g transform="translate(343 299)" stroke="#000" stroke-width="1"><rect width="4" height="13" stroke="none"/><rect x="0.5" y="0.5" width="3" height="12" fill="none"/></g><g transform="translate(353 302)" stroke="#000" stroke-width="1"><rect width="4" height="10" stroke="none"/><rect x="0.5" y="0.5" width="3" height="9" fill="none"/></g><g transform="translate(286 395)" stroke="#000" stroke-width="1"><rect width="30" height="131" stroke="none"/><rect x="0.5" y="0.5" width="29" height="130" fill="none"/></g><g transform="translate(501 299)" stroke="#000" stroke-width="1"><rect width="23.5" height="69" stroke="none"/><rect x="0.5" y="0.5" width="22.5" height="68" fill="none"/></g><path d="M501,299h22V277.2Z" transform="translate(1.1)" stroke="#000" stroke-width="1"/><g transform="translate(413 374)" stroke="#000" stroke-width="1"><rect width="26" height="115" stroke="none"/><rect x="0.5" y="0.5" width="25" height="114" fill="none"/></g><g transform="translate(276 356)" stroke="#000" stroke-width="1"><rect width="3" height="29" stroke="none"/><rect x="0.5" y="0.5" width="2" height="28" fill="none"/></g><g transform="translate(515 256)" stroke="#000" stroke-width="1"><rect width="5" height="60" stroke="none"/><rect x="0.5" y="0.5" width="4" height="59" fill="none"/></g><path d="M390.133,525V466.667l23.491-23.491V525Z" stroke="#000" stroke-width="1"/><g transform="translate(376 443)" stroke="#000" stroke-width="1"><rect width="5" height="29" stroke="none"/><rect x="0.5" y="0.5" width="4" height="28" fill="none"/></g><g transform="translate(126 449)" stroke="#000" stroke-width="1"><rect width="4" height="23" stroke="none"/><rect x="0.5" y="0.5" width="3" height="22" fill="none"/></g><g transform="translate(169 407)" stroke="#000" stroke-width="1"><rect width="10" height="19" stroke="none"/><rect x="0.5" y="0.5" width="9" height="18" fill="none"/></g><g transform="translate(286 356)" stroke="#000" stroke-width="1"><rect width="3" height="26" stroke="none"/><rect x="0.5" y="0.5" width="2" height="25" fill="none"/></g><g transform="translate(301 385)" stroke="#000" stroke-width="1"><rect width="9" height="14" stroke="none"/><rect x="0.5" y="0.5" width="8" height="13" fill="none"/></g><g transform="translate(390 443)" stroke="#000" stroke-width="1"><rect width="4" height="29" stroke="none"/><rect x="0.5" y="0.5" width="3" height="28" fill="none"/></g><g transform="translate(484 426)" stroke="#000" stroke-width="1"><rect width="18" height="68" stroke="none"/><rect x="0.5" y="0.5" width="17" height="67" fill="none"/></g><g transform="translate(490 478)" stroke="#000" stroke-width="1"><rect width="26" height="48" stroke="none"/><rect x="0.5" y="0.5" width="25" height="47" fill="none"/></g><path d="M856,526H1965.363l143.5.95,56.734.05" transform="translate(0)" fill="none" stroke="#000" stroke-width="1"/><path d="M552.5,457.5H803.6V524H552.5Z" transform="translate(0 1.5)" stroke="#000" stroke-width="1"/><g transform="translate(658 333)" stroke="#000" stroke-width="1"><rect width="56" height="127" stroke="none"/><rect x="0.5" y="0.5" width="55" height="126" fill="none"/></g><g transform="translate(700 347)" stroke="#000" stroke-width="1"><rect width="30" height="125" stroke="none"/><rect x="0.5" y="0.5" width="29" height="124" fill="none"/></g><path d="M658,333.5V292l55.6,41.5Z" stroke="#000" stroke-width="1"/><g transform="translate(763 376)" stroke="#000" stroke-width="1"><rect width="35" height="84" stroke="none"/><rect x="0.5" y="0.5" width="34" height="83" fill="none"/></g><g transform="translate(678 272)" stroke="#000" stroke-width="1"><rect width="8" height="46" stroke="none"/><rect x="0.5" y="0.5" width="7" height="45" fill="none"/></g><g transform="translate(586 312)" stroke="#000" stroke-width="1"><rect width="34" height="160" stroke="none"/><rect x="0.5" y="0.5" width="33" height="159" fill="none"/></g><path d="M730,438.147v-40.8l15.53,16.03,24.6-34.974v67.033Z" transform="translate(0 31.1)" stroke="#000" stroke-width="1"/><g transform="translate(763 302)" stroke="#000" stroke-width="1"><rect width="18" height="83" stroke="none"/><rect x="0.5" y="0.5" width="17" height="82" fill="none"/></g><g transform="translate(629 407)" stroke="#000" stroke-width="1"><rect width="4" height="36" stroke="none"/><rect x="0.5" y="0.5" width="3" height="35" fill="none"/></g><g transform="translate(816 431)" stroke="#000" stroke-width="1"><rect width="80" height="95" stroke="none"/><rect x="0.5" y="0.5" width="79" height="94" fill="none"/></g><g transform="translate(856 376)" stroke="#000" stroke-width="1"><rect width="40" height="73" stroke="none"/><rect x="0.5" y="0.5" width="39" height="72" fill="none"/></g><g transform="translate(836 239)" stroke="#000" stroke-width="1"><rect width="40" height="204" stroke="none"/><rect x="0.5" y="0.5" width="39" height="203" fill="none"/></g><g transform="translate(927 335)" stroke="#000" stroke-width="1"><rect width="62" height="191" stroke="none"/><rect x="0.5" y="0.5" width="61" height="190" fill="none"/></g><g transform="translate(936 223)" stroke="#000" stroke-width="1"><rect width="44" height="118" stroke="none"/><rect x="0.5" y="0.5" width="43" height="117" fill="none"/></g><g transform="translate(944 194)" stroke="#000" stroke-width="1"><rect width="4" height="45" stroke="none"/><rect x="0.5" y="0.5" width="3" height="44" fill="none"/></g><g transform="translate(963 182)" stroke="#000" stroke-width="1"><rect width="4" height="57" stroke="none"/><rect x="0.5" y="0.5" width="3" height="56" fill="none"/></g><g transform="translate(1006 238)" stroke="#000" stroke-width="1"><rect width="97" height="288" stroke="none"/><rect x="0.5" y="0.5" width="96" height="287" fill="none"/></g><path d="M1005.867,239,1086,198.133V239Z" stroke="#000" stroke-width="1"/><g transform="translate(1141 449)" stroke="#000" stroke-width="1"><rect width="204" height="77" stroke="none"/><rect x="0.5" y="0.5" width="203" height="76" fill="none"/></g><g transform="translate(1168 440)" stroke="#000" stroke-width="1"><rect width="172" height="18" stroke="none"/><rect x="0.5" y="0.5" width="171" height="17" fill="none"/></g><g transform="translate(1180 425)" stroke="#000" stroke-width="1"><rect width="149" height="21" stroke="none"/><rect x="0.5" y="0.5" width="148" height="20" fill="none"/></g><g transform="translate(1220 385)" stroke="#000" stroke-width="1"><rect width="107" height="52" stroke="none"/><rect x="0.5" y="0.5" width="106" height="51" fill="none"/></g><g transform="translate(1247 353)" stroke="#000" stroke-width="1"><rect width="54" height="43" stroke="none"/><rect x="0.5" y="0.5" width="53" height="42" fill="none"/></g><g transform="translate(1197 386)" stroke="#000" stroke-width="1"><rect width="6" height="43" stroke="none"/><rect x="0.5" y="0.5" width="5" height="42" fill="none"/></g><g transform="translate(1287 336)" stroke="#000" stroke-width="1"><rect width="6" height="30" stroke="none"/><rect x="0.5" y="0.5" width="5" height="29" fill="none"/></g><path d="M1103,418.75l40.467,30.583v75.733H1103Z" stroke="#000" stroke-width="1"/><g transform="translate(1364 311)" stroke="#000" stroke-width="1"><rect width="46" height="215" stroke="none"/><rect x="0.5" y="0.5" width="45" height="214" fill="none"/></g><g transform="translate(1387 383)" stroke="#000" stroke-width="1"><rect width="60" height="143" stroke="none"/><rect x="0.5" y="0.5" width="59" height="142" fill="none"/></g><g transform="translate(1387 338)" stroke="#000" stroke-width="1"><rect width="46" height="188" stroke="none"/><rect x="0.5" y="0.5" width="45" height="187" fill="none"/></g><path d="M1364,312l15.2-20,29.867,20Z" stroke="#000" stroke-width="1"/><g transform="translate(1484 480)" stroke="#000" stroke-width="1"><rect width="171" height="46" stroke="none"/><rect x="0.5" y="0.5" width="170" height="45" fill="none"/></g><g transform="translate(1495 458)" stroke="#000" stroke-width="1"><rect width="63" height="30" stroke="none"/><rect x="0.5" y="0.5" width="62" height="29" fill="none"/></g><g transform="translate(1588 419)" stroke="#000" stroke-width="1"><rect width="39" height="69" stroke="none"/><rect x="0.5" y="0.5" width="38" height="68" fill="none"/></g><g transform="translate(1668 440)" stroke="#000" stroke-width="1"><rect width="38" height="85" stroke="none"/><rect x="0.5" y="0.5" width="37" height="84" fill="none"/></g><g transform="translate(1736 385)" stroke="#000" stroke-width="1"><rect width="29" height="141" stroke="none"/><rect x="0.5" y="0.5" width="28" height="140" fill="none"/></g><g transform="translate(1784 493)" stroke="#000" stroke-width="1"><rect width="99" height="33" stroke="none"/><rect x="0.5" y="0.5" width="98" height="32" fill="none"/></g><path d="M1447,460.5l42,17.678V523h-42Z" transform="translate(-5 3)" stroke="#000" stroke-width="1"/><g transform="translate(1511 386)" stroke="#000" stroke-width="1"><rect width="47" height="78" stroke="none"/><rect x="0.5" y="0.5" width="46" height="77" fill="none"/></g><path d="M1511,386l46.733-23.6V386Z" stroke="#000" stroke-width="1"/><path d="M1655,483.739l14.6-44.005h62.933v90H1655Z" transform="translate(-5.533 -3.733)" stroke="#000" stroke-width="1"/><g transform="translate(1417 302)" stroke="#000" stroke-width="1"><rect width="7" height="45" stroke="none"/><rect x="0.5" y="0.5" width="6" height="44" fill="none"/></g><g transform="translate(1527 336)" stroke="#000" stroke-width="1"><rect width="7" height="50" stroke="none"/><rect x="0.5" y="0.5" width="6" height="49" fill="none"/></g><g transform="translate(1545 324)" stroke="#000" stroke-width="1"><rect width="6" height="50" stroke="none"/><rect x="0.5" y="0.5" width="5" height="49" fill="none"/></g><g transform="translate(1681 407)" stroke="#000" stroke-width="1"><rect width="6" height="39" stroke="none"/><rect x="0.5" y="0.5" width="5" height="38" fill="none"/></g><g transform="translate(1698 377)" stroke="#000" stroke-width="1"><rect width="7" height="59" stroke="none"/><rect x="0.5" y="0.5" width="6" height="58" fill="none"/></g><g transform="translate(1716 351)" stroke="#000" stroke-width="1"><rect width="9" height="92" stroke="none"/><rect x="0.5" y="0.5" width="8" height="91" fill="none"/></g><g transform="translate(1602 386)" stroke="#000" stroke-width="1"><rect width="18" height="34" stroke="none"/><rect x="0.5" y="0.5" width="17" height="33" fill="none"/></g><g transform="translate(1760 445)" stroke="#000" stroke-width="1"><rect width="28" height="81" stroke="none"/><rect x="0.5" y="0.5" width="27" height="80" fill="none"/></g><g transform="translate(1808 464)" stroke="#000" stroke-width="1"><rect width="4" height="31" stroke="none"/><rect x="0.5" y="0.5" width="3" height="30" fill="none"/></g><g transform="translate(1123 333)" stroke="#000" stroke-width="1"><rect width="30" height="123" stroke="none"/><rect x="0.5" y="0.5" width="29" height="122" fill="none"/></g><g transform="translate(1834 480)" stroke="#000" stroke-width="1"><rect width="49" height="22" stroke="none"/><rect x="0.5" y="0.5" width="48" height="21" fill="none"/></g><path d="M531.15,363.422l20.6-10.672v13Z" stroke="#000" stroke-width="1"/></g></svg>